<svg version="1.1" viewBox="0.0 0.0 960.0 720.0" fill="none" stroke="none" stroke-linecap="square" stroke-miterlimit="10" xmlns:xlink="http://www.w3.org/1999/xlink" xmlns="http://www.w3.org/2000/svg"><clipPath id="p.0"><path d="m0 0l960.0 0l0 720.0l-960.0 0l0 -720.0z" clip-rule="nonzero"/></clipPath><g clip-path="url(#p.0)"><path fill="#000000" fill-opacity="0.0" d="m0 0l960.0 0l0 720.0l-960.0 0z" fill-rule="evenodd"/><path fill="#666666" d="m273.0105 107.76807l413.98425 0l0 44.235336l-413.98425 0z" fill-rule="evenodd"/><path stroke="#434343" stroke-width="1.0" stroke-linejoin="round" stroke-linecap="butt" d="m273.0105 107.76807l413.98425 0l0 44.235336l-413.98425 0z" fill-rule="evenodd"/><path fill="#666666" d="m427.43045 240.47408l0 371.75787l-154.4252 0l0 -371.75787z" fill-rule="evenodd"/><path stroke="#434343" stroke-width="1.0" stroke-linejoin="round" stroke-linecap="butt" d="m427.43045 240.47408l0 371.75787l-154.4252 0l0 -371.75787z" fill-rule="evenodd"/><path fill="#666666" d="m686.99475 240.47408l0 371.75787l-142.07874 0l0 -371.75787z" fill-rule="evenodd"/><path stroke="#434343" stroke-width="1.0" stroke-linejoin="round" stroke-linecap="butt" d="m686.99475 240.47408l0 371.75787l-142.07874 0l0 -371.75787z" fill-rule="evenodd"/></g></svg>