<svg version="1.1" viewBox="0.0 0.0 407.005249343832 539.5538057742782" fill="none" stroke="none" stroke-linecap="square" stroke-miterlimit="10" xmlns:xlink="http://www.w3.org/1999/xlink" xmlns="http://www.w3.org/2000/svg"><clipPath id="p.0"><path d="m0 0l407.00525 0l0 539.55383l-407.00525 0l0 -539.55383z" clip-rule="nonzero"/></clipPath><g clip-path="url(#p.0)"><path fill="#000000" fill-opacity="0.0" d="m0 0l407.00525 0l0 539.55383l-407.00525 0z" fill-rule="evenodd"/><path fill="#666666" d="m166.24658 217.49763l0 273.20483l-109.44113 0l0 -273.20483z" fill-rule="evenodd"/><path stroke="#434343" stroke-width="0.7874015748031495" stroke-linejoin="round" stroke-linecap="butt" d="m166.24658 217.49763l0 273.20483l-109.44113 0l0 -273.20483z" fill-rule="evenodd"/><path fill="#666666" d="m350.1998 217.49763l0 273.20483l-100.69119 0l0 -273.20483z" fill-rule="evenodd"/><path stroke="#434343" stroke-width="0.7874015748031495" stroke-linejoin="round" stroke-linecap="butt" d="m350.1998 217.49763l0 273.20483l-100.69119 0l0 -273.20483z" fill-rule="evenodd"/><path fill="#666666" d="m56.805447 48.851326l293.38583 0l0 104.40945l-293.38583 0z" fill-rule="evenodd"/><path stroke="#434343" stroke-width="0.7874015748031495" stroke-linejoin="round" stroke-linecap="butt" d="m56.805447 48.851326l293.38583 0l0 104.40945l-293.38583 0z" fill-rule="evenodd"/></g></svg>